<?xml version="1.0" standalone="no"?>
<!DOCTYPE svg PUBLIC "-//W3C//DTD SVG 20010904//EN"
 "http://www.w3.org/TR/2001/REC-SVG-20010904/DTD/svg10.dtd">
<svg version="1.0" xmlns="http://www.w3.org/2000/svg"
 width="700.000000pt" height="700.000000pt" viewBox="0 0 700.000000 700.000000"
 preserveAspectRatio="xMidYMid meet">
<metadata>
Created by potrace 1.14, written by Peter Selinger 2001-2017
</metadata>
<g transform="translate(0.000000,700.000000) scale(0.100000,-0.100000)"
fill="#000000" stroke="none">
<path d="M0 3500 l0 -3500 3500 0 3500 0 0 3500 0 3500 -3500 0 -3500 0 0
-3500z m2360 2951 c0 -199 -2 -230 -16 -235 -9 -3 -65 -6 -125 -6 l-109 0 0
-1948 0 -1949 -152 -6 c-83 -4 -191 -7 -240 -7 l-88 0 0 1955 0 1955 -675 0
-675 0 0 235 0 235 1040 0 1040 0 0 -229z m1115 -301 c145 -10 397 -47 500
-73 l50 -13 3 -238 c2 -224 1 -238 -15 -233 -330 93 -377 99 -900 104 l-443 5
0 -1731 0 -1731 345 0 345 0 -2 -227 -3 -228 -587 -3 -588 -2 0 2190 0 2190
573 0 c314 0 640 -5 722 -10z m1115 -2417 c255 -791 472 -1468 483 -1505 11
-38 23 -68 26 -68 4 0 137 399 296 888 158 488 319 977 356 1087 l67 200 1
-610 1 -609 -151 -471 c-82 -258 -188 -588 -235 -732 l-85 -263 -249 0 -248 0
-36 112 c-144 454 -934 2889 -939 2894 -3 3 -10 3 -16 -1 -8 -4 -11 -578 -11
-1931 l0 -1924 -235 0 -235 0 0 2185 0 2185 373 0 373 0 464 -1437z m-560
-1618 l0 -234 -37 -11 c-21 -5 -55 -13 -75 -16 l-38 -7 0 231 0 231 63 20 c34
10 68 20 75 20 9 1 12 -52 12 -234z"/>
</g>
</svg>
